<?xml version="1.0" standalone="no"?>
<!DOCTYPE svg PUBLIC "-//W3C//DTD SVG 20010904//EN"
 "http://www.w3.org/TR/2001/REC-SVG-20010904/DTD/svg10.dtd">
<svg version="1.0" xmlns="http://www.w3.org/2000/svg"
 width="1500.000000pt" height="1500.000000pt" viewBox="0 0 1500.000000 1500.000000"
 preserveAspectRatio="xMidYMid meet">
<metadata>
Created by potrace 1.10, written by Peter Selinger 2001-2011
</metadata>
<g transform="translate(0.000000,1500.000000) scale(0.100000,-0.100000)"
fill="#000000" stroke="none">
<path d="M0 8245 l0 -6755 6743 2 6742 3 3 6753 2 6752 -6745 0 -6745 0 0
-6755z m8750 4142 c111 -24 247 -65 286 -85 11 -6 39 -18 64 -28 134 -55 318
-182 421 -292 61 -65 189 -241 189 -259 0 -3 11 -30 25 -60 65 -136 89 -256
124 -628 6 -60 15 -148 21 -195 5 -47 16 -155 25 -240 9 -85 23 -211 32 -280
11 -82 17 -196 17 -330 -1 -176 -4 -216 -22 -285 -58 -221 -140 -370 -287
-524 -157 -164 -326 -278 -550 -370 -245 -101 -349 -123 -775 -166 -149 -15
-275 -27 -595 -60 -82 -9 -202 -22 -265 -30 -63 -8 -150 -15 -194 -15 -75 0
-79 1 -111 33 -34 34 -55 88 -55 141 0 17 -7 89 -15 160 -9 72 -22 194 -31
271 -8 77 -21 199 -29 270 -8 72 -21 200 -30 285 -9 85 -20 191 -25 235 -6 44
-14 125 -20 180 -11 112 -30 294 -60 585 -11 107 -25 242 -30 300 -6 58 -14
143 -19 190 -6 47 -17 153 -26 235 -33 318 -46 434 -60 545 -21 160 -20 200 8
241 33 49 86 70 197 79 52 5 133 13 180 19 47 6 153 17 235 26 83 8 188 20
235 25 47 5 157 17 245 26 88 9 192 20 230 24 39 5 178 7 310 5 211 -3 254 -6
355 -28z m-3891 -83 c110 -16 200 -37 261 -59 240 -89 389 -193 512 -358 71
-97 138 -229 140 -279 2 -73 -25 -91 -362 -238 -52 -23 -113 -50 -135 -60
-133 -60 -161 -70 -203 -70 -42 0 -49 4 -86 47 -119 136 -189 180 -333 209
-81 16 -100 16 -170 5 -170 -29 -198 -37 -341 -108 -165 -81 -277 -214 -327
-390 -23 -81 -16 -230 15 -323 25 -74 80 -206 140 -334 22 -48 40 -89 40 -91
0 -3 15 -37 34 -77 19 -40 78 -172 131 -293 130 -294 151 -339 196 -416 105
-182 286 -280 489 -265 117 8 186 28 316 91 292 143 411 365 344 643 -21 88
-44 142 -61 142 -9 0 -85 -33 -472 -203 -21 -9 -57 -17 -81 -17 -59 0 -103 45
-151 156 -20 46 -49 112 -65 147 -88 191 -110 251 -110 302 0 45 4 55 33 83
17 17 59 43 92 57 33 15 78 35 100 45 47 21 127 57 207 94 32 14 122 53 200
87 79 34 148 65 153 69 6 3 35 17 65 30 30 12 82 35 115 51 33 15 118 53 189
83 195 84 252 77 309 -39 33 -66 97 -205 97 -211 0 -2 14 -34 31 -71 204 -442
254 -575 278 -741 26 -170 -2 -374 -74 -558 -112 -283 -354 -563 -656 -760
-79 -51 -232 -130 -306 -158 -106 -39 -129 -49 -146 -57 -39 -21 -254 -69
-374 -85 -156 -20 -406 -15 -528 11 -98 21 -203 55 -272 89 -29 14 -55 26 -58
26 -15 0 -170 115 -228 169 -148 140 -211 251 -428 751 -28 63 -61 139 -75
168 -13 28 -36 78 -50 110 -14 31 -39 85 -55 119 -16 35 -29 65 -29 67 0 3
-13 33 -29 68 -16 35 -54 122 -86 193 -31 72 -65 148 -75 170 -94 210 -127
388 -110 600 13 155 39 251 109 401 183 389 596 739 1046 884 118 39 151 48
225 64 213 46 430 57 609 30z m1472 -4210 c34 -37 31 -108 -8 -194 -32 -70
-61 -132 -100 -220 -13 -30 -38 -83 -54 -117 -16 -35 -29 -65 -29 -67 0 -3
-13 -33 -29 -68 -15 -35 -52 -117 -81 -183 -29 -66 -64 -145 -77 -175 -89
-194 -105 -230 -163 -365 -29 -66 -63 -145 -77 -175 -110 -241 -163 -360 -203
-455 -23 -55 -56 -129 -73 -165 -16 -36 -45 -100 -63 -142 l-33 -77 10 -128
c6 -70 16 -198 25 -283 8 -85 14 -180 14 -210 0 -30 6 -127 14 -215 36 -398
39 -448 21 -491 -27 -69 -59 -79 -290 -98 -110 -9 -259 -21 -331 -27 -231 -19
-265 8 -279 221 -3 52 -10 145 -15 205 -6 61 -14 175 -20 255 -28 413 -50 690
-57 706 -8 23 -175 277 -1070 1628 -168 252 -309 469 -314 483 -16 42 -10 90
14 118 20 23 34 27 142 40 66 8 152 15 190 15 39 0 129 7 200 15 245 28 356
17 407 -41 18 -21 163 -239 323 -488 55 -86 146 -227 203 -313 56 -87 130
-202 165 -256 133 -211 141 -219 153 -180 3 10 16 41 29 68 12 28 55 127 95
220 39 94 78 184 85 201 8 16 36 82 63 145 27 63 61 140 75 170 14 30 48 109
76 177 28 67 67 157 86 198 19 42 35 80 35 86 0 20 70 114 97 129 48 28 111
37 353 54 129 9 240 18 245 20 6 2 58 4 116 4 101 1 107 0 130 -25z m854 -64
c55 -11 114 -22 130 -26 41 -7 161 -33 215 -46 25 -6 68 -14 95 -19 80 -12
143 -39 170 -71 21 -24 25 -40 25 -89 0 -33 -6 -85 -14 -117 -8 -31 -22 -91
-30 -132 -9 -41 -22 -106 -30 -145 -8 -38 -17 -81 -19 -95 -3 -14 -28 -140
-57 -280 -29 -140 -56 -275 -60 -300 -5 -25 -18 -88 -30 -140 -12 -52 -25
-118 -30 -147 -5 -28 -13 -68 -19 -90 -5 -21 -17 -76 -26 -123 -9 -47 -23
-112 -31 -145 -7 -33 -41 -197 -74 -366 -80 -406 -79 -486 3 -642 86 -163 314
-281 568 -294 184 -10 321 38 432 151 92 93 130 188 182 446 9 47 22 112 30
145 7 33 21 98 30 145 9 47 21 103 27 124 5 21 13 60 18 85 11 66 128 649 139
696 6 22 17 76 26 120 9 44 23 112 31 150 18 89 42 202 60 285 17 81 37 180
59 290 23 117 42 166 73 191 23 18 37 20 107 16 70 -3 522 -89 612 -116 53
-16 88 -47 103 -91 12 -37 10 -57 -29 -253 -45 -229 -103 -513 -146 -717 -8
-36 -21 -101 -30 -145 -9 -44 -23 -107 -30 -140 -7 -33 -21 -98 -30 -145 -9
-47 -21 -103 -25 -125 -5 -22 -34 -165 -64 -317 -31 -153 -60 -299 -66 -325
-11 -52 -28 -131 -55 -258 -9 -44 -23 -100 -31 -125 -8 -25 -14 -52 -14 -60 0
-24 -65 -177 -107 -253 -21 -38 -65 -102 -99 -141 -150 -176 -308 -283 -519
-353 -382 -127 -771 -122 -1200 13 -141 45 -156 51 -275 109 -164 81 -299 175
-416 290 -199 196 -300 393 -338 655 -18 129 -7 305 32 480 10 46 30 140 56
265 8 39 21 104 30 145 9 41 34 165 56 275 23 110 55 268 71 350 17 83 33 161
36 175 2 14 10 54 18 90 8 36 21 101 31 145 9 44 22 107 29 140 8 33 21 98 30
145 9 47 21 103 26 125 5 22 29 140 53 262 50 254 69 304 124 327 48 20 50 19
167 -4z"/>
<path d="M7540 11761 c-145 -37 -205 -95 -240 -231 -15 -59 -15 -72 -3 -121
20 -78 51 -118 134 -175 41 -28 115 -79 164 -114 50 -35 115 -80 145 -101 31
-20 60 -43 66 -50 11 -14 30 -138 59 -389 9 -74 20 -171 25 -215 11 -88 30
-290 30 -318 0 -9 -39 -61 -87 -115 -49 -53 -104 -115 -123 -137 -19 -21 -56
-62 -81 -90 -25 -27 -60 -70 -78 -94 -28 -40 -31 -51 -31 -122 0 -90 24 -148
87 -213 100 -102 237 -108 553 -23 60 16 307 98 355 117 17 7 39 16 50 21 107
42 292 124 318 139 18 10 54 31 82 46 73 39 184 124 233 178 67 73 75 101 68
231 -8 127 -31 202 -79 256 -58 66 -84 74 -242 74 -150 0 -163 4 -204 56 -28
35 -52 187 -54 336 -3 164 -7 160 221 218 31 8 68 16 82 19 14 3 45 22 68 41
64 55 78 115 63 265 -17 161 -26 188 -77 237 -67 65 -234 138 -414 181 -180
43 -392 82 -450 82 -25 0 -99 7 -165 15 -161 20 -390 18 -475 -4z m849 -370
c18 -14 26 -32 30 -67 l6 -49 66 -5 c56 -4 70 -9 88 -30 11 -14 20 -35 21 -46
0 -34 -37 -73 -78 -80 -66 -12 -72 -19 -72 -81 0 -72 -17 -93 -76 -93 -48 0
-74 25 -74 70 0 48 -25 70 -82 70 -39 0 -57 5 -75 22 -51 47 -16 123 63 135
57 9 64 17 57 73 -5 43 -3 51 20 74 31 31 72 33 106 7z m148 -1137 c31 -8 63
-67 63 -115 0 -49 -34 -84 -90 -94 -47 -8 -74 5 -100 48 -41 67 -16 135 56
157 37 11 44 11 71 4z m282 -191 c32 -26 41 -119 15 -151 -27 -33 -119 -42
-152 -16 -31 26 -42 113 -19 148 25 37 119 49 156 19z m-418 -93 c29 -39 35
-110 13 -138 -22 -27 -88 -44 -130 -34 -54 14 -83 111 -48 160 21 31 50 42
103 39 34 -2 48 -8 62 -27z m253 -173 c32 -41 42 -87 26 -116 -28 -53 -130
-80 -166 -44 -28 28 -46 83 -40 119 8 42 56 74 113 74 36 0 46 -5 67 -33z"/>
<path d="M8880 10842 c-69 -26 -70 -27 -69 -95 1 -89 33 -325 46 -338 6 -6 47
-12 90 -13 l78 -1 -2 55 c-2 51 -28 305 -39 378 -4 27 -9 32 -32 31 -15 0 -47
-8 -72 -17z"/>
</g>
</svg>
