<?xml version="1.0" standalone="no"?>
<!DOCTYPE svg PUBLIC "-//W3C//DTD SVG 20010904//EN"
 "http://www.w3.org/TR/2001/REC-SVG-20010904/DTD/svg10.dtd">
<svg version="1.0" xmlns="http://www.w3.org/2000/svg"
 width="900.000000pt" height="906.000000pt" viewBox="0 0 900.000000 906.000000"
 preserveAspectRatio="xMidYMid meet">
<metadata>
Created by potrace 1.10, written by Peter Selinger 2001-2011
</metadata>
<g transform="translate(0.000000,906.000000) scale(0.100000,-0.100000)"
fill="#000000" stroke="none">
<path d="M5525 7399 c-60 -3 -155 -11 -210 -18 -55 -6 -158 -18 -230 -26 -71
-8 -193 -21 -270 -30 -77 -8 -157 -15 -178 -15 -44 0 -92 -22 -107 -49 -14
-27 -13 -76 5 -211 8 -63 21 -185 30 -270 16 -161 36 -342 56 -515 6 -55 15
-145 19 -200 4 -55 13 -143 19 -195 24 -204 41 -362 56 -515 9 -88 22 -214 30
-280 8 -66 16 -152 19 -192 11 -140 37 -159 196 -138 58 8 177 21 265 30 88 9
214 22 280 30 66 8 135 15 153 15 57 0 255 31 295 46 20 8 46 14 57 14 22 0
113 39 225 97 195 100 363 272 423 433 52 142 56 162 56 305 0 77 -8 201 -17
275 -9 74 -24 207 -32 295 -25 256 -46 415 -66 493 -40 160 -139 306 -278 411
-72 54 -252 151 -282 151 -7 0 -31 6 -54 14 -69 24 -138 37 -210 42 -38 3 -86
6 -105 7 -19 1 -84 0 -145 -4z m-50 -469 c290 -32 539 -106 622 -186 38 -36
43 -45 43 -87 0 -25 5 -67 11 -94 9 -38 8 -59 -3 -98 -17 -60 -53 -89 -136
-105 -120 -25 -147 -41 -165 -100 -2 -8 3 -73 13 -144 15 -118 19 -132 44
-153 22 -19 39 -23 94 -24 37 -1 77 0 88 0 36 3 90 -25 116 -60 16 -23 31 -66
43 -126 17 -88 17 -95 1 -138 -22 -57 -112 -137 -221 -195 -44 -24 -84 -46
-90 -50 -24 -17 -175 -76 -295 -116 -171 -57 -263 -77 -361 -78 -88 -1 -98 1
-137 27 -55 36 -85 95 -85 169 0 63 3 68 129 208 141 157 144 161 144 194 0
17 -7 83 -15 146 -27 206 -45 374 -45 411 0 42 -18 61 -138 144 -221 153 -238
174 -229 275 9 107 81 173 206 191 63 9 230 4 366 -11z m579 -637 c9 -31 25
-166 28 -233 l3 -65 -45 -3 c-25 -1 -51 2 -59 7 -9 6 -19 46 -27 113 -20 160
-20 167 19 183 44 19 75 19 81 -2z"/>
<path d="M5590 6682 c-13 -11 -23 -31 -24 -52 -2 -19 -4 -38 -5 -42 0 -4 -18
-12 -39 -18 -45 -12 -65 -43 -49 -77 10 -22 34 -33 78 -33 21 0 28 -7 38 -40
23 -77 101 -78 101 -2 0 48 7 56 53 72 75 24 66 91 -13 100 -40 5 -44 8 -57
46 -17 52 -52 71 -83 46z"/>
<path d="M5666 5878 c-23 -32 -20 -74 6 -98 46 -42 108 -14 108 50 0 48 -21
70 -65 70 -24 0 -39 -7 -49 -22z"/>
<path d="M5836 5755 c-9 -13 -16 -33 -16 -43 0 -24 44 -72 65 -72 20 0 57 19
67 34 13 19 9 60 -8 84 -22 32 -86 31 -108 -3z"/>
<path d="M5573 5720 c-30 -12 -44 -43 -37 -80 15 -75 134 -62 134 15 0 27 -40
75 -62 74 -7 0 -23 -4 -35 -9z"/>
<path d="M5742 5600 c-54 -22 -47 -104 11 -124 46 -16 81 9 85 61 2 33 -1 44
-20 57 -25 18 -42 19 -76 6z"/>
<path d="M2935 7300 c-22 -5 -65 -13 -95 -19 -172 -31 -328 -94 -470 -187
-121 -80 -191 -140 -272 -234 -77 -90 -113 -143 -155 -230 -66 -139 -68 -150
-67 -340 l1 -175 40 -95 c43 -99 133 -303 158 -355 7 -16 23 -50 33 -75 43
-97 75 -168 103 -227 16 -35 29 -65 29 -67 0 -3 20 -48 45 -100 25 -53 45 -98
45 -101 0 -18 71 -149 106 -196 49 -64 181 -174 234 -195 8 -3 29 -12 45 -19
90 -40 146 -52 318 -71 60 -7 302 19 346 37 14 6 43 14 65 19 60 12 116 33
248 94 140 66 334 222 425 344 16 20 35 45 43 54 28 31 118 222 136 288 24 90
24 283 0 365 -19 62 -24 75 -75 188 -17 37 -31 69 -31 72 0 2 -18 43 -40 89
-21 46 -51 113 -65 148 -15 35 -31 67 -36 73 -5 5 -9 16 -9 25 0 24 -41 59
-77 66 -22 4 -47 0 -80 -15 -26 -12 -61 -28 -78 -36 -16 -7 -60 -27 -98 -44
-37 -17 -69 -31 -71 -31 -3 0 -48 -20 -100 -45 -53 -25 -98 -45 -101 -45 -3 0
-33 -13 -68 -29 -34 -17 -91 -42 -126 -58 -155 -67 -185 -86 -195 -121 -10
-35 0 -67 67 -212 99 -216 109 -228 174 -215 21 4 49 13 63 20 51 27 277 125
289 125 15 0 40 -59 49 -121 11 -72 -1 -158 -30 -214 -22 -42 -94 -122 -126
-139 -218 -118 -350 -142 -475 -87 -45 20 -157 114 -157 133 0 4 -11 26 -24
47 -14 21 -37 67 -51 102 -15 35 -38 87 -50 114 -52 112 -85 185 -85 189 0 3
-20 48 -45 100 -25 53 -45 98 -45 101 0 3 -13 33 -29 68 -53 115 -65 166 -64
262 1 74 6 100 27 148 42 92 115 162 222 214 111 52 182 67 291 60 111 -8 158
-31 242 -116 70 -72 91 -82 126 -58 11 7 61 31 110 52 98 41 246 108 284 128
13 6 29 20 35 29 24 39 -43 180 -132 280 -107 119 -259 195 -460 233 -86 16
-248 18 -317 5z"/>
<path d="M3955 4445 c-55 -7 -136 -14 -180 -14 -104 -1 -139 -23 -184 -113
-17 -35 -31 -67 -31 -71 0 -4 -13 -35 -29 -69 -36 -79 -82 -186 -111 -258 -12
-30 -26 -59 -31 -65 -5 -5 -9 -15 -9 -22 0 -7 -14 -43 -31 -80 -17 -38 -37
-81 -44 -98 -7 -16 -27 -60 -44 -97 -17 -37 -31 -74 -31 -82 0 -8 -4 -17 -9
-20 -19 -12 -43 9 -81 73 -22 36 -70 111 -105 166 -123 187 -189 290 -200 307
-111 183 -187 290 -226 317 -37 25 -36 25 -294 1 -55 -5 -131 -9 -170 -10
-131 0 -175 -29 -155 -101 8 -28 63 -117 149 -242 14 -21 31 -45 36 -55 6 -9
73 -111 149 -227 77 -115 209 -316 294 -445 85 -129 166 -252 181 -273 49 -71
120 -182 136 -212 10 -20 19 -76 25 -165 9 -136 19 -277 44 -583 20 -238 9
-230 271 -202 77 8 168 15 202 15 74 0 104 12 126 50 15 25 15 39 2 166 -8 77
-15 169 -15 205 0 37 -7 129 -15 205 -8 77 -15 189 -16 249 -2 109 -2 110 40
205 23 52 50 113 60 135 10 22 26 58 36 80 10 22 51 114 90 205 145 329 157
356 176 400 11 25 24 52 29 61 4 8 33 75 64 147 31 72 73 168 95 214 105 228
117 270 83 301 -22 21 -125 21 -277 2z"/>
<path d="M4686 4378 c-13 -21 -21 -55 -62 -258 -9 -41 -22 -102 -29 -135 -7
-33 -21 -98 -30 -145 -9 -47 -23 -114 -30 -150 -8 -36 -21 -101 -30 -145 -27
-134 -44 -217 -60 -295 -39 -185 -70 -340 -90 -437 -8 -40 -22 -106 -30 -145
-24 -119 -25 -138 -15 -243 17 -185 57 -276 188 -433 46 -55 164 -150 242
-195 67 -38 169 -87 199 -94 14 -3 37 -11 51 -18 14 -7 52 -20 85 -28 262 -66
528 -64 746 6 178 58 347 188 429 332 36 64 100 236 100 272 0 13 6 49 14 81
14 53 20 85 62 290 23 113 44 218 60 292 7 36 20 101 29 145 9 44 23 114 31
155 16 75 29 135 60 285 35 172 44 212 59 281 8 40 15 97 15 128 0 71 -18 90
-97 106 -68 14 -173 36 -258 55 -88 20 -150 27 -179 19 -30 -7 -66 -67 -66
-109 0 -15 -7 -54 -15 -88 -8 -34 -22 -98 -31 -142 -9 -44 -22 -109 -30 -145
-46 -225 -62 -302 -89 -435 -9 -44 -22 -109 -29 -145 -37 -178 -46 -221 -61
-295 -9 -44 -22 -106 -30 -137 -8 -32 -15 -67 -15 -79 0 -57 -49 -182 -96
-245 -29 -39 -115 -96 -174 -115 -127 -40 -362 12 -466 103 -18 16 -51 57 -71
91 l-38 62 1 120 c0 77 6 149 18 200 39 175 45 203 61 285 9 47 23 117 31 155
8 39 22 104 30 145 8 41 21 104 29 140 35 169 46 225 60 292 8 40 22 107 30
148 9 41 22 107 30 145 8 39 20 96 26 128 11 49 10 63 -3 90 -17 36 -1 31
-253 83 -38 9 -98 22 -132 30 -34 7 -85 14 -112 14 -42 0 -53 -4 -65 -22z"/>
</g>
</svg>
