<?xml version="1.0" encoding="UTF-8" standalone="no"?>
<svg
   version="1.0"
   width="1500.000000pt"
   height="1500.000000pt"
   viewBox="0 0 1500.000000 1500.000000"
   preserveAspectRatio="xMidYMid meet"
   id="svg12"
   sodipodi:docname="logo.svg"
   inkscape:version="1.1.2 (0a00cf5339, 2022-02-04)"
   xmlns:inkscape="http://www.inkscape.org/namespaces/inkscape"
   xmlns:sodipodi="http://sodipodi.sourceforge.net/DTD/sodipodi-0.dtd"
   xmlns="http://www.w3.org/2000/svg"
   xmlns:svg="http://www.w3.org/2000/svg">
  <defs
     id="defs16" />
  <sodipodi:namedview
     id="namedview14"
     pagecolor="#ffffff"
     bordercolor="#666666"
     borderopacity="1.0"
     inkscape:pageshadow="2"
     inkscape:pageopacity="0.0"
     inkscape:pagecheckerboard="0"
     inkscape:document-units="pt"
     showgrid="false"
     inkscape:zoom="0.4325"
     inkscape:cx="801.15607"
     inkscape:cy="886.7052"
     inkscape:window-width="1920"
     inkscape:window-height="1080"
     inkscape:window-x="0"
     inkscape:window-y="0"
     inkscape:window-maximized="0"
     inkscape:current-layer="svg12" />
  <metadata
     id="metadata2">
Created by potrace 1.10, written by Peter Selinger 2001-2011
</metadata>
  <g
     transform="matrix(0.11123981,0,0,-0.11107079,-0.01662184,1666.0041)"
     fill="#000000"
     stroke="none"
     id="g10">
    <path
       d="M 0,8245 V 1490 l 6743,2 6742,3 3,6753 2,6752 H 6745 0 Z m 8750,4142 c 111,-24 247,-65 286,-85 11,-6 39,-18 64,-28 134,-55 318,-182 421,-292 61,-65 189,-241 189,-259 0,-3 11,-30 25,-60 65,-136 89,-256 124,-628 6,-60 15,-148 21,-195 5,-47 16,-155 25,-240 9,-85 23,-211 32,-280 11,-82 17,-196 17,-330 -1,-176 -4,-216 -22,-285 -58,-221 -140,-370 -287,-524 -157,-164 -326,-278 -550,-370 -245,-101 -349,-123 -775,-166 -149,-15 -275,-27 -595,-60 -82,-9 -202,-22 -265,-30 -63,-8 -150,-15 -194,-15 -75,0 -79,1 -111,33 -34,34 -55,88 -55,141 0,17 -7,89 -15,160 -9,72 -22,194 -31,271 -8,77 -21,199 -29,270 -8,72 -21,200 -30,285 -9,85 -20,191 -25,235 -6,44 -14,125 -20,180 -11,112 -30,294 -60,585 -11,107 -25,242 -30,300 -6,58 -14,143 -19,190 -6,47 -17,153 -26,235 -33,318 -46,434 -60,545 -21,160 -20,200 8,241 33,49 86,70 197,79 52,5 133,13 180,19 47,6 153,17 235,26 83,8 188,20 235,25 47,5 157,17 245,26 88,9 192,20 230,24 39,5 178,7 310,5 211,-3 254,-6 355,-28 z m -3891,-83 c 110,-16 200,-37 261,-59 240,-89 389,-193 512,-358 71,-97 138,-229 140,-279 2,-73 -25,-91 -362,-238 -52,-23 -113,-50 -135,-60 -133,-60 -161,-70 -203,-70 -42,0 -49,4 -86,47 -119,136 -189,180 -333,209 -81,16 -100,16 -170,5 -170,-29 -198,-37 -341,-108 -165,-81 -277,-214 -327,-390 -23,-81 -16,-230 15,-323 25,-74 80,-206 140,-334 22,-48 40,-89 40,-91 0,-3 15,-37 34,-77 19,-40 78,-172 131,-293 130,-294 151,-339 196,-416 105,-182 286,-280 489,-265 117,8 186,28 316,91 292,143 411,365 344,643 -21,88 -44,142 -61,142 -9,0 -85,-33 -472,-203 -21,-9 -57,-17 -81,-17 -59,0 -103,45 -151,156 -20,46 -49,112 -65,147 -88,191 -110,251 -110,302 0,45 4,55 33,83 17,17 59,43 92,57 33,15 78,35 100,45 47,21 127,57 207,94 32,14 122,53 200,87 79,34 148,65 153,69 6,3 35,17 65,30 30,12 82,35 115,51 33,15 118,53 189,83 195,84 252,77 309,-39 33,-66 97,-205 97,-211 0,-2 14,-34 31,-71 204,-442 254,-575 278,-741 26,-170 -2,-374 -74,-558 -112,-283 -354,-563 -656,-760 -79,-51 -232,-130 -306,-158 -106,-39 -129,-49 -146,-57 -39,-21 -254,-69 -374,-85 -156,-20 -406,-15 -528,11 -98,21 -203,55 -272,89 -29,14 -55,26 -58,26 -15,0 -170,115 -228,169 -148,140 -211,251 -428,751 -28,63 -61,139 -75,168 -13,28 -36,78 -50,110 -14,31 -39,85 -55,119 -16,35 -29,65 -29,67 0,3 -13,33 -29,68 -16,35 -54,122 -86,193 -31,72 -65,148 -75,170 -94,210 -127,388 -110,600 13,155 39,251 109,401 183,389 596,739 1046,884 118,39 151,48 225,64 213,46 430,57 609,30 z M 6331,8094 c 34,-37 31,-108 -8,-194 -32,-70 -61,-132 -100,-220 -13,-30 -38,-83 -54,-117 -16,-35 -29,-65 -29,-67 0,-3 -13,-33 -29,-68 -15,-35 -52,-117 -81,-183 -29,-66 -64,-145 -77,-175 -89,-194 -105,-230 -163,-365 -29,-66 -63,-145 -77,-175 -110,-241 -163,-360 -203,-455 -23,-55 -56,-129 -73,-165 -16,-36 -45,-100 -63,-142 l -33,-77 10,-128 c 6,-70 16,-198 25,-283 8,-85 14,-180 14,-210 0,-30 6,-127 14,-215 36,-398 39,-448 21,-491 -27,-69 -59,-79 -290,-98 -110,-9 -259,-21 -331,-27 -231,-19 -265,8 -279,221 -3,52 -10,145 -15,205 -6,61 -14,175 -20,255 -28,413 -50,690 -57,706 -8,23 -175,277 -1070,1628 -168,252 -309,469 -314,483 -16,42 -10,90 14,118 20,23 34,27 142,40 66,8 152,15 190,15 39,0 129,7 200,15 245,28 356,17 407,-41 18,-21 163,-239 323,-488 55,-86 146,-227 203,-313 56,-87 130,-202 165,-256 133,-211 141,-219 153,-180 3,10 16,41 29,68 12,28 55,127 95,220 39,94 78,184 85,201 8,16 36,82 63,145 27,63 61,140 75,170 14,30 48,109 76,177 28,67 67,157 86,198 19,42 35,80 35,86 0,20 70,114 97,129 48,28 111,37 353,54 129,9 240,18 245,20 6,2 58,4 116,4 101,1 107,0 130,-25 z m 854,-64 c 55,-11 114,-22 130,-26 41,-7 161,-33 215,-46 25,-6 68,-14 95,-19 80,-12 143,-39 170,-71 21,-24 25,-40 25,-89 0,-33 -6,-85 -14,-117 -8,-31 -22,-91 -30,-132 -9,-41 -22,-106 -30,-145 -8,-38 -17,-81 -19,-95 -3,-14 -28,-140 -57,-280 -29,-140 -56,-275 -60,-300 -5,-25 -18,-88 -30,-140 -12,-52 -25,-118 -30,-147 -5,-28 -13,-68 -19,-90 -5,-21 -17,-76 -26,-123 -9,-47 -23,-112 -31,-145 -7,-33 -41,-197 -74,-366 -80,-406 -79,-486 3,-642 86,-163 314,-281 568,-294 184,-10 321,38 432,151 92,93 130,188 182,446 9,47 22,112 30,145 7,33 21,98 30,145 9,47 21,103 27,124 5,21 13,60 18,85 11,66 128,649 139,696 6,22 17,76 26,120 9,44 23,112 31,150 18,89 42,202 60,285 17,81 37,180 59,290 23,117 42,166 73,191 23,18 37,20 107,16 70,-3 522,-89 612,-116 53,-16 88,-47 103,-91 12,-37 10,-57 -29,-253 -45,-229 -103,-513 -146,-717 -8,-36 -21,-101 -30,-145 -9,-44 -23,-107 -30,-140 -7,-33 -21,-98 -30,-145 -9,-47 -21,-103 -25,-125 -5,-22 -34,-165 -64,-317 -31,-153 -60,-299 -66,-325 -11,-52 -28,-131 -55,-258 -9,-44 -23,-100 -31,-125 -8,-25 -14,-52 -14,-60 0,-24 -65,-177 -107,-253 -21,-38 -65,-102 -99,-141 -150,-176 -308,-283 -519,-353 -382,-127 -771,-122 -1200,13 -141,45 -156,51 -275,109 -164,81 -299,175 -416,290 -199,196 -300,393 -338,655 -18,129 -7,305 32,480 10,46 30,140 56,265 8,39 21,104 30,145 9,41 34,165 56,275 23,110 55,268 71,350 17,83 33,161 36,175 2,14 10,54 18,90 8,36 21,101 31,145 9,44 22,107 29,140 8,33 21,98 30,145 9,47 21,103 26,125 5,22 29,140 53,262 50,254 69,304 124,327 48,20 50,19 167,-4 z"
       id="path4"
       style="opacity:1;fill:#120227;fill-opacity:1" />
    <path
       d="m 7540,11761 c -145,-37 -205,-95 -240,-231 -15,-59 -15,-72 -3,-121 20,-78 51,-118 134,-175 41,-28 115,-79 164,-114 50,-35 115,-80 145,-101 31,-20 60,-43 66,-50 11,-14 30,-138 59,-389 9,-74 20,-171 25,-215 11,-88 30,-290 30,-318 0,-9 -39,-61 -87,-115 -49,-53 -104,-115 -123,-137 -19,-21 -56,-62 -81,-90 -25,-27 -60,-70 -78,-94 -28,-40 -31,-51 -31,-122 0,-90 24,-148 87,-213 100,-102 237,-108 553,-23 60,16 307,98 355,117 17,7 39,16 50,21 107,42 292,124 318,139 18,10 54,31 82,46 73,39 184,124 233,178 67,73 75,101 68,231 -8,127 -31,202 -79,256 -58,66 -84,74 -242,74 -150,0 -163,4 -204,56 -28,35 -52,187 -54,336 -3,164 -7,160 221,218 31,8 68,16 82,19 14,3 45,22 68,41 64,55 78,115 63,265 -17,161 -26,188 -77,237 -67,65 -234,138 -414,181 -180,43 -392,82 -450,82 -25,0 -99,7 -165,15 -161,20 -390,18 -475,-4 z m 849,-370 c 18,-14 26,-32 30,-67 l 6,-49 66,-5 c 56,-4 70,-9 88,-30 11,-14 20,-35 21,-46 0,-34 -37,-73 -78,-80 -66,-12 -72,-19 -72,-81 0,-72 -17,-93 -76,-93 -48,0 -74,25 -74,70 0,48 -25,70 -82,70 -39,0 -57,5 -75,22 -51,47 -16,123 63,135 57,9 64,17 57,73 -5,43 -3,51 20,74 31,31 72,33 106,7 z m 148,-1137 c 31,-8 63,-67 63,-115 0,-49 -34,-84 -90,-94 -47,-8 -74,5 -100,48 -41,67 -16,135 56,157 37,11 44,11 71,4 z m 282,-191 c 32,-26 41,-119 15,-151 -27,-33 -119,-42 -152,-16 -31,26 -42,113 -19,148 25,37 119,49 156,19 z m -418,-93 c 29,-39 35,-110 13,-138 -22,-27 -88,-44 -130,-34 -54,14 -83,111 -48,160 21,31 50,42 103,39 34,-2 48,-8 62,-27 z m 253,-173 c 32,-41 42,-87 26,-116 -28,-53 -130,-80 -166,-44 -28,28 -46,83 -40,119 8,42 56,74 113,74 36,0 46,-5 67,-33 z"
       id="path6" />
    <path
       d="m 8880,10842 c -69,-26 -70,-27 -69,-95 1,-89 33,-325 46,-338 6,-6 47,-12 90,-13 l 78,-1 -2,55 c -2,51 -28,305 -39,378 -4,27 -9,32 -32,31 -15,0 -47,-8 -72,-17 z"
       id="path8" />
  </g>
  <path
     style="opacity:1;fill:#120227;fill-opacity:1;stroke-width:0.00638644"
     d=""
     id="path1213"
     transform="scale(0.75)" />
  <path
     style="opacity:1;fill:#120227;fill-opacity:1;stroke-width:0.578035"
     d="m 1151.7566,858.8946 c -1.8951,-0.2761 -4.8865,-0.918 -6.6474,-1.42645 -12.8507,-3.71046 -25.0127,-16.67798 -28.4184,-30.30052 -0.5035,-2.01384 -0.7948,-6.46336 -0.7948,-12.13873 0,-8.56782 0.068,-9.09853 1.5629,-12.13873 2.5556,-5.1983 12.664,-17.10773 39.7225,-46.80011 6.9808,-7.66035 14.5427,-16.87709 16.6676,-20.31538 l 1.2735,-2.06044 -0.8646,-10.06521 c -3.2822,-38.21171 -12.2206,-111.2859 -15.0738,-123.23408 l -0.9362,-3.92031 -4.702,-3.45637 c -4.0299,-2.96233 -32.2018,-22.59936 -50.9447,-35.51067 -7.2357,-4.98436 -13.9044,-11.61204 -16.3141,-16.21366 -2.5922,-4.94999 -4.7842,-12.93611 -4.7842,-17.42992 0,-4.06456 2.0124,-12.79883 4.2699,-18.53209 2.2171,-5.63071 5.211,-10.08868 9.4661,-14.09544 4.6557,-4.38395 8.8427,-6.71169 16.9557,-9.42648 11.039,-3.69388 14.7303,-4.06158 40.6956,-4.05384 21.3616,0.006 24.1772,0.12671 36.9942,1.58125 7.6301,0.86591 17.6445,1.83199 22.2543,2.14684 9.4551,0.6458 18.5215,1.9635 34.1041,4.95666 37.9798,7.29532 58.936,13.45574 77.6466,22.82555 12.8939,6.45692 21.5556,13.84806 24.0539,20.52537 2.9104,7.77863 4.887,22.96625 4.9218,37.81822 0.023,9.74356 -0.095,11.04104 -1.3254,14.60377 -2.3609,6.83542 -8.1516,13.06021 -15.4125,16.56778 -1.9963,0.96433 -8.7361,2.94191 -15.88,4.65948 -15.3312,3.68596 -21.9306,5.77549 -25.9826,8.2267 -5.9723,3.61286 -6.8752,8.06655 -5.8841,29.02459 0.9152,19.35457 2.8592,32.99854 5.8322,40.93309 1.5647,4.17598 6.0421,9.19733 9.401,10.54326 3.1027,1.24321 13.0889,1.98883 27.0221,2.01759 11.5845,0.0239 16.2131,0.54732 21.1395,2.39051 5.6009,2.09557 13.3537,10.4716 16.7036,18.04645 3.468,7.84174 5.5355,20.85847 5.6158,35.35672 0.059,10.6824 -0.6874,13.95293 -4.4992,19.71103 -2.9765,4.49638 -11.8571,13.25232 -19.35,19.0784 -18.6082,14.46878 -34.9543,22.99036 -78.2802,40.80907 -13.1982,5.42804 -48.1715,17.32088 -62.4426,21.23386 -25.7856,7.07015 -45.5969,9.83516 -57.7661,8.06224 z m 123.0632,-62.65947 c 3.4189,-0.56257 8.5117,-3.36326 10.8774,-5.98183 4.5798,-5.06933 4.0422,-11.39893 -1.6572,-19.50993 -3.3658,-4.78995 -5.299,-5.66854 -11.6069,-5.27499 -3.6183,0.22573 -5.6084,0.68592 -7.9764,1.84449 -3.7057,1.81305 -7.0613,5.471 -7.5864,8.27 -1.5513,8.26873 3.6973,19.71904 9.4817,20.68527 1.1798,0.19708 2.4052,0.44932 2.7231,0.56054 0.5778,0.20212 1.4683,0.11011 5.7447,-0.59355 z m -32.9531,-26.90533 c 4.8749,-1.82393 7.045,-3.97182 7.9077,-7.82654 1.4324,-6.40095 -1.5327,-16.27378 -5.739,-19.10837 -3.5679,-2.40443 -13.4417,-2.536 -17.9439,-0.23912 -4.9032,2.50143 -7.4023,7.60919 -6.8837,14.06946 0.5217,6.50002 4.2661,12.53134 8.8269,14.2183 2.5245,0.93377 9.9596,0.33511 13.832,-1.11373 z m 63.5399,-12.53412 c 1.5131,-0.59434 3.4835,-1.77194 4.3788,-2.61689 2.8804,-2.71869 3.7578,-9.72268 2.0427,-16.30738 -1.9279,-7.40157 -4.6472,-9.25927 -13.5516,-9.25776 -4.9551,5.8e-4 -5.8466,0.17319 -8.9701,1.7341 -2.0976,1.04822 -3.9672,2.48714 -4.7309,3.64096 -3.5064,5.29812 -1.4778,18.74669 3.3568,22.25309 0.8338,0.60476 2.3945,1.32424 3.4682,1.59883 2.9894,0.76454 10.9025,0.17417 14.0061,-1.04495 z m -37.5813,-24.64358 c 5.7563,-2.81627 8.3589,-7.55535 7.7449,-14.10244 -0.4343,-4.62984 -2.3724,-9.37922 -5.085,-12.46091 -2.983,-3.38891 -6.7937,-4.44315 -11.9592,-3.30859 -10.1854,2.23711 -15.6464,9.114 -14.0586,17.70347 1.012,5.47436 5.132,11.58665 9.0008,13.35332 2.9393,1.34218 10.4608,0.72146 14.3571,-1.18485 z m -18.7588,-132.0348 c 2.8999,-1.33552 4.0449,-4.43659 4.4511,-12.05499 0.1839,-3.44872 0.5841,-6.93615 0.8895,-7.74984 0.7553,-2.01267 2.8684,-3.127 8.1318,-4.28819 7.3136,-1.61355 12.1427,-5.67156 12.9943,-10.91968 0.7307,-4.50259 -3.3918,-10.71064 -7.9227,-11.93067 -2.2249,-0.59911 -12.2049,-1.66899 -15.9453,-1.70937 l -1.803,-0.0195 -0.6543,-5.05781 c -0.935,-7.22769 -1.5926,-9.1272 -3.9533,-11.41989 -2.4627,-2.3917 -6.9628,-3.92836 -9.9683,-3.40389 -2.9465,0.51417 -6.6705,2.81126 -8.5326,5.26327 -1.5764,2.07577 -1.606,2.25819 -1.4511,8.95933 0.087,3.76224 -0.098,7.31927 -0.4115,7.90453 -0.688,1.28552 -2.5314,2.05595 -7.7069,3.2209 -5.1711,1.16396 -7.946,2.64617 -10.4661,5.59034 -4.2881,5.0096 -3.2883,12.24065 2.2137,16.01064 2.0812,1.42607 6.6102,2.41235 11.0776,2.41235 1.6987,0 4.1377,0.41975 5.4199,0.93279 3.3513,1.34092 4.6731,3.52995 5.2528,8.69876 0.7625,6.79904 3.0847,9.71705 8.3721,10.51995 3.6563,0.55522 7.5299,0.18418 10.0123,-0.95906 z"
     id="path2174"
     transform="scale(0.75)" />
  <path
     style="opacity:1;fill:#120227;fill-opacity:1;stroke-width:0.578035"
     d="m 1319.3642,680.86816 c -5.5541,-0.7907 -5.7501,-0.96546 -6.8446,-6.10118 -3.0512,-14.31721 -6.2766,-45.25279 -5.3129,-50.95693 0.2192,-1.29699 1.0242,-2.98157 1.7916,-3.74899 1.5913,-1.59123 9.149,-4.61895 14.7011,-5.88942 4.8069,-1.09993 5.3938,-1.08845 6.8879,0.13472 1.0475,0.85754 1.4085,2.33173 2.371,9.68208 1.6396,12.52203 4.5205,41.5481 4.9769,50.14451 l 0.3913,7.36994 -7.7471,-0.0705 c -4.2609,-0.0388 -9.3077,-0.29268 -11.2152,-0.56425 z"
     id="path2213"
     transform="scale(0.75)" />
</svg>
