<svg width="152" height="138" viewBox="0 0 152 138" fill="none" xmlns="http://www.w3.org/2000/svg">
<path d="M150.107 1.23139C148.911 0.28819 147.349 -0.0544004 145.868 0.298471L76 17.0111L6.13213 0.298802C4.651 -0.0544005 3.08895 0.28819 1.89337 1.23172C0.697783 2.17526 0 3.61427 0 5.13719V115.873C0 118.175 1.57897 120.176 3.81758 120.712C4.5608 120.89 74.497 137.621 74.9231 137.715C75.4501 137.832 76.0096 137.837 75.9997 137.837H76C76.3734 137.837 76.8474 137.775 77.1571 137.701L148.183 120.712C150.421 120.176 152 118.175 152 115.873V5.13719C152 3.61427 151.302 2.17492 150.107 1.23139ZM70.3623 98.6454C69.7233 101.317 67.0396 102.965 64.3668 102.327L14.2933 90.349C11.6212 89.7096 9.97326 87.0256 10.6123 84.3535C11.2514 81.6814 13.9354 80.0345 16.6078 80.6722L66.6814 92.6496C69.3535 93.289 71.0014 95.9734 70.3623 98.6454ZM70.3623 76.9226C69.7233 79.5944 67.0396 81.2423 64.3668 80.6039L14.2933 68.6262C11.6212 67.9868 9.97326 65.3027 10.6123 62.6307C11.2514 59.9586 13.9354 58.3116 16.6078 58.9494L66.6814 70.9268C69.3535 71.5662 71.0014 74.2506 70.3623 76.9226ZM70.3623 55.1998C69.7233 57.8716 67.0396 59.5195 64.3668 58.8811L14.2933 46.9034C11.6212 46.264 9.97326 43.5799 10.6123 40.9079C11.2514 38.2358 13.9354 36.5888 16.6078 37.2266L66.6814 49.204C69.3535 49.8434 71.0014 52.5277 70.3623 55.1998ZM137.985 90.349L87.9117 102.326C85.2393 102.965 82.5553 101.318 81.9162 98.6451C81.2771 95.973 82.9251 93.289 85.5972 92.6496L135.671 80.6722C138.343 80.0341 141.027 81.6811 141.666 84.3535C142.305 87.0256 140.657 89.7096 137.985 90.349ZM137.985 68.6262L87.9117 80.6036C85.2393 81.2423 82.5553 79.5947 81.9162 76.9223C81.2771 74.2502 82.9251 71.5662 85.5972 70.9268L135.671 58.9494C138.343 58.311 141.027 59.9583 141.666 62.6307C142.305 65.3027 140.657 67.9868 137.985 68.6262ZM137.985 46.9034L87.9117 58.8808C85.2393 59.5195 82.5553 57.8719 81.9162 55.1995C81.2771 52.5274 82.9251 49.8434 85.5972 49.204L135.671 37.2266C138.343 36.5878 141.027 38.2355 141.666 40.9079C142.305 43.5799 140.657 46.264 137.985 46.9034Z" fill="#EC25A0"/>
</svg>
