<svg width="135" height="137" viewBox="0 0 135 137" fill="none" xmlns="http://www.w3.org/2000/svg">
<path d="M124.16 0H43.3673C37.7533 0 33.1859 4.56746 33.1859 10.1815V26.5506H42.4798V10.1815C42.4798 9.69221 42.8781 9.29393 43.367 9.29393H124.16C124.649 9.29393 125.047 9.69221 125.047 10.1815V26.5927H92.8505C103.024 27.224 111.108 35.6966 111.108 46.0261C111.108 48.3703 111.108 98.5373 111.108 101.155H124.16C129.774 101.155 134.342 96.5879 134.342 90.9739V10.1815C134.341 4.56746 129.774 0 124.16 0Z" fill="#EC25A0"/>
<path d="M51.0455 22.5091C54.1424 22.5091 56.6529 19.9985 56.6529 16.9016C56.6529 13.8047 54.1424 11.2942 51.0455 11.2942C47.9486 11.2942 45.438 13.8047 45.438 16.9016C45.438 19.9985 47.9486 22.5091 51.0455 22.5091Z" fill="#EC25A0"/>
<path d="M91.6324 35.8445C87.9319 35.8445 14.9754 35.8445 10.8399 35.8445C5.23244 35.8445 0.658417 40.403 0.658417 46.026V126.818C0.658417 132.432 5.22588 137 10.8399 137H91.6324C97.247 137 101.814 132.432 101.814 126.818V46.026C101.814 40.4209 97.2595 35.8445 91.6324 35.8445ZM9.95235 62.4372V46.026C9.95235 45.5367 10.3506 45.1387 10.8396 45.1387H91.6321C92.1216 45.1387 92.5196 45.537 92.5196 46.026V62.4372H9.95235Z" fill="#EC25A0"/>
<path d="M18.5181 58.3538C21.615 58.3538 24.1255 55.8433 24.1255 52.7464C24.1255 49.6495 21.615 47.1389 18.5181 47.1389C15.4212 47.1389 12.9106 49.6495 12.9106 52.7464C12.9106 55.8433 15.4212 58.3538 18.5181 58.3538Z" fill="#EC25A0"/>
</svg>
