<svg width="148" height="150" viewBox="0 0 148 150" fill="none" xmlns="http://www.w3.org/2000/svg">
<path d="M142.088 0H81.6384C78.9168 0 76.7104 2.20641 76.7104 4.92796V145.072C76.7104 147.794 78.9168 150 81.6384 150H142.088C144.81 150 147.016 147.794 147.016 145.072V4.92796C147.016 2.20641 144.81 0 142.088 0Z" fill="#EC25A0"/>
<path d="M61.845 0H5.91197C3.19042 0 0.984009 2.20641 0.984009 4.92796V38.5199C0.984009 41.2415 3.19042 43.4479 5.91197 43.4479H61.845C64.5666 43.4479 66.773 41.2415 66.773 38.5199V4.92796C66.773 2.20641 64.5666 0 61.845 0Z" fill="#EC25A0"/>
<path d="M61.845 106.552H5.91197C3.19042 106.552 0.984009 108.758 0.984009 111.48V145.072C0.984009 147.793 3.19042 150 5.91197 150H61.845C64.5666 150 66.773 147.793 66.773 145.072V111.48C66.773 108.758 64.5666 106.552 61.845 106.552Z" fill="#EC25A0"/>
<path d="M61.845 53.2761H5.91197C3.19042 53.2761 0.984009 55.4825 0.984009 58.2041V91.7957C0.984009 94.5173 3.19042 96.7237 5.91197 96.7237H61.845C64.5666 96.7237 66.773 94.5173 66.773 91.7957V58.2041C66.773 55.4825 64.5666 53.2761 61.845 53.2761Z" fill="#EC25A0"/>
</svg>
